<svg width="18" height="18" viewBox="0 0 18 18" fill="none" xmlns="http://www.w3.org/2000/svg">
<g clip-path="url(#clip0_7_149)">
<path d="M2.49879 5.83051C2.18865 5.83051 1.9255 5.93866 1.7092 6.15497C1.49289 6.37127 1.3847 6.63083 1.3847 6.93378V11.5852C1.3847 11.8957 1.49286 12.1586 1.7092 12.375C1.9255 12.5913 2.18865 12.6995 2.49879 12.6995C2.8087 12.6995 3.07024 12.5913 3.2832 12.375C3.49573 12.1587 3.60229 11.8957 3.60229 11.5852V6.93378C3.60229 6.6308 3.49413 6.37127 3.2778 6.15497C3.06146 5.93866 2.80173 5.83051 2.49879 5.83051Z" fill="white"/>
<path d="M11.4556 1.65491L12.2237 0.238073C12.2741 0.144273 12.2562 0.0723446 12.1697 0.0217667C12.0759 -0.0218462 12.0038 0.000253148 11.9534 0.0865025L11.1746 1.51466C10.4893 1.21168 9.76456 1.05992 9.00026 1.05992C8.2358 1.05992 7.51095 1.21171 6.82593 1.51466L6.04712 0.0865025C5.99651 0.000253148 5.92442 -0.0216509 5.83081 0.0217667C5.74417 0.0725724 5.72624 0.144273 5.77685 0.238073L6.54492 1.65491C5.76611 2.05208 5.14583 2.60521 4.68431 3.31551C4.2228 4.02621 3.99194 4.80284 3.99194 5.64678H13.9977C13.9977 4.80304 13.7668 4.02637 13.3053 3.31551C12.8438 2.60521 12.2271 2.05208 11.4556 1.65491ZM7.01516 3.71571C6.9321 3.79897 6.8329 3.8404 6.71758 3.8404C6.60204 3.8404 6.50486 3.79897 6.42557 3.71571C6.34629 3.63285 6.30665 3.53403 6.30665 3.41833C6.30665 3.30302 6.34629 3.20401 6.42557 3.12095C6.50486 3.03808 6.60227 2.99665 6.71758 2.99665C6.8329 2.99665 6.9321 3.03808 7.01516 3.12095C7.09802 3.2042 7.13965 3.30302 7.13965 3.41833C7.13942 3.53384 7.09783 3.63285 7.01516 3.71571ZM11.5745 3.71571C11.4951 3.79897 11.3977 3.8404 11.2825 3.8404C11.167 3.8404 11.0678 3.79897 10.9849 3.71571C10.9019 3.63285 10.8604 3.53403 10.8604 3.41833C10.8604 3.30302 10.9019 3.20401 10.9849 3.12095C11.0678 3.03808 11.167 2.99665 11.2825 2.99665C11.3979 2.99665 11.495 3.03808 11.5745 3.12095C11.6539 3.2042 11.6935 3.30302 11.6935 3.41833C11.6935 3.53384 11.6538 3.63285 11.5745 3.71571Z" fill="white"/>
<path d="M4.03491 13.2402C4.03491 13.5723 4.15023 13.8533 4.38089 14.084C4.61174 14.3147 4.89282 14.43 5.22463 14.43H6.02516L6.03612 16.8858C6.03612 17.1959 6.14428 17.4592 6.36058 17.6755C6.57689 17.8919 6.83665 18 7.1394 18C7.44934 18 7.71265 17.8919 7.92899 17.6755C8.14533 17.4592 8.25348 17.1959 8.25348 16.8858V14.4302H9.74621V16.8858C9.74621 17.1959 9.85433 17.4592 10.0707 17.6755C10.287 17.8919 10.5501 18 10.8603 18C11.1702 18 11.4335 17.8919 11.6498 17.6755C11.8662 17.4592 11.9743 17.1959 11.9743 16.8858V14.4302H12.7856C13.1101 14.4302 13.3876 14.3148 13.6186 14.0842C13.8493 13.8535 13.9646 13.5725 13.9646 13.2404V6.03583H4.03491V13.2402Z" fill="white"/>
<path d="M15.5013 5.83051C15.1983 5.83051 14.9388 5.93706 14.7225 6.1496C14.5062 6.36252 14.398 6.62406 14.398 6.93378V11.5852C14.398 11.8957 14.5061 12.1586 14.7225 12.375C14.9388 12.5913 15.1985 12.6995 15.5013 12.6995C15.8113 12.6995 16.0746 12.5913 16.2909 12.375C16.5072 12.1586 16.6154 11.8957 16.6154 11.5852V6.93378C16.6154 6.62403 16.5072 6.36252 16.2909 6.1496C16.0746 5.93706 15.8113 5.83051 15.5013 5.83051Z" fill="white"/>
</g>
<defs>
<clipPath id="clip0_7_149">
<rect width="18" height="18" fill="white"/>
</clipPath>
</defs>
</svg>
