<svg width="29" height="18" viewBox="0 0 29 18" fill="none" xmlns="http://www.w3.org/2000/svg">
<g clip-path="url(#clip0_102_16)">
<path d="M2.17157 2.1141C2.17157 2.67488 1.83167 3.11589 1.21858 3.11589C0.704071 3.11589 0.340454 2.67488 0.340454 2.1141C0.340454 1.55331 0.730321 1.1123 1.25669 1.1123C1.81864 1.1123 2.17176 1.55195 2.17176 2.1141H2.17157ZM0.680154 17.4072V5.43157H1.83148V17.4072H0.680154Z" fill="white"/>
<path d="M2.17198 17.7479H0.339894V5.09172H2.17198V17.7479ZM1.02065 17.0674H1.49141V5.77229H1.02065V17.0674ZM1.21841 3.45642C0.523841 3.45642 0 2.87949 0 2.11454C0 1.34958 0.551842 0.772461 1.25652 0.772461C1.9612 0.772461 2.51187 1.33675 2.51187 2.11454C2.51187 2.89233 1.98006 3.45661 1.2186 3.45661L1.21841 3.45642ZM1.25652 1.45303C0.933542 1.45303 0.680566 1.74353 0.680566 2.11454C0.680566 2.44315 0.865291 2.77605 1.21841 2.77605C1.78697 2.77605 1.83111 2.26971 1.83111 2.11454C1.83111 1.80945 1.68061 1.45303 1.25632 1.45303H1.25652Z" fill="white"/>
<path d="M17.6566 8.88173C17.6566 14.908 14.4867 17.6595 11.032 17.6595C7.57724 17.6595 4.61755 14.6842 4.61755 9.11759C4.61755 3.55095 7.58968 0.339844 11.2659 0.339844C14.9421 0.339844 17.6566 3.3425 17.6566 8.88173ZM5.81885 9.09134C5.81885 12.7145 7.55468 16.6732 11.1294 16.6732C14.7041 16.6732 16.4555 12.8193 16.4555 8.93403C16.4555 5.48103 14.903 1.32589 11.1568 1.32589C7.4106 1.32589 5.81885 5.3527 5.81885 9.09114V9.09134Z" fill="white"/>
<path d="M11.0319 18C10.0914 18 9.2016 17.8032 8.38726 17.4151C7.56105 17.0213 6.83518 16.4407 6.23006 15.69C4.95254 14.105 4.27722 11.8323 4.27722 9.11803C4.27722 6.40374 4.97626 3.99901 6.29889 2.37109C6.92521 1.6003 7.67597 1.00471 8.53057 0.600454C9.37291 0.202031 10.293 0 11.2659 0C12.2387 0 13.1193 0.198142 13.9354 0.589176C14.7605 0.984293 15.4828 1.56744 16.0823 2.32248C17.3348 3.89945 17.9968 6.16768 17.9968 8.88217C17.9968 10.367 17.8067 11.7184 17.4316 12.8991C17.0787 14.0101 16.563 14.9697 15.8992 15.7512C14.6671 17.2014 12.9385 18.0002 11.0319 18.0002V18ZM11.2659 0.680566C10.3945 0.680566 9.57222 0.860624 8.82165 1.21569C8.05981 1.576 7.38877 2.10917 6.82721 2.80043C5.60433 4.30546 4.95779 6.49007 4.95779 9.11803C4.95779 11.746 5.58099 13.8001 6.75993 15.263C7.30068 15.9338 7.94683 16.4512 8.6801 16.8008C9.40208 17.145 10.1935 17.3196 11.0319 17.3196C11.8704 17.3196 12.6558 17.1534 13.3849 16.8255C14.1458 16.4835 14.8171 15.9739 15.3804 15.3106C15.9855 14.5983 16.4574 13.7177 16.7829 12.6931C17.1368 11.5792 17.3163 10.297 17.3163 8.88236C17.3163 6.32324 16.7053 4.20123 15.5495 2.74579C15.0146 2.07223 14.3727 1.55325 13.6416 1.20305C12.9179 0.856541 12.1187 0.68076 11.2659 0.68076V0.680566ZM11.1294 17.014C10.2086 17.014 9.36027 16.7686 8.60757 16.2848C7.92486 15.8459 7.33121 15.218 6.84315 14.4189C5.97591 12.9984 5.47852 11.0569 5.47852 9.09178C5.47852 7.00866 5.94228 5.0708 6.78462 3.635C7.801 1.90208 9.31283 0.986237 11.1568 0.986237C13.0007 0.986237 14.4845 1.91239 15.505 3.66456C16.3254 5.07294 16.7957 6.99389 16.7957 8.93467C16.7957 11.0366 16.3102 12.9912 15.4284 14.4383C14.4015 16.1234 12.915 17.0142 11.1294 17.0142V17.014ZM11.1568 1.66661C10.3257 1.66661 9.57339 1.87972 8.92102 2.29992C8.31881 2.68785 7.7975 3.25272 7.37146 3.97917C6.58959 5.31211 6.15889 7.12786 6.15889 9.09158C6.15889 10.9349 6.61992 12.7474 7.42377 14.064C8.05592 15.0992 9.21172 16.3334 11.129 16.3334C11.9245 16.3334 12.6525 16.1281 13.293 15.7232C13.8921 15.3444 14.4149 14.793 14.8468 14.084C15.6645 12.7421 16.1148 10.9134 16.1148 8.93467C16.1148 7.11055 15.6781 5.31444 14.9166 4.00698C14.4912 3.27644 13.9733 2.70671 13.3776 2.31373C12.7267 1.88439 11.9795 1.6668 11.1566 1.6668L11.1568 1.66661Z" fill="white"/>
<path d="M19.9837 15.6494C20.7971 16.2082 21.9953 16.6362 23.2141 16.6362C25.5424 16.6362 26.9877 15.2247 26.9877 13.154C26.9877 11.3041 26.0028 10.1827 23.9302 9.21336C21.8181 8.3539 19.9495 6.94611 19.9495 4.57287C19.9495 2.19964 21.9043 0.363281 24.5476 0.363281C25.9517 0.363281 27.0369 0.751787 27.5434 1.1049L27.0931 2.08045C26.6546 1.76797 25.694 1.34952 24.4385 1.34952C22.0003 1.34952 21.0996 3.01671 21.0996 4.33895C21.0996 6.26554 22.1843 7.15825 24.3111 8.16179C26.8228 9.39673 28.1377 10.7127 28.1377 13.0531C28.1377 15.5984 26.3464 17.6357 23.1472 17.6357C21.823 17.6357 20.2954 17.1842 19.5569 16.6134L19.9835 15.6498L19.9837 15.6494Z" fill="white"/>
<path d="M23.1474 17.9762C21.7662 17.9762 20.1688 17.5163 19.349 16.8828L19.1381 16.7197L19.8387 15.1373L20.1766 15.3694C21.0213 15.9498 22.1569 16.2964 23.2143 16.2964C24.2717 16.2964 25.1327 15.9946 25.7415 15.4239C26.3344 14.8679 26.6476 14.0832 26.6476 13.1545C26.6476 12.3082 26.4324 11.6448 25.9706 11.0663C25.5171 10.4985 24.8255 10.0089 23.7941 9.52569C22.564 9.02421 21.5916 8.40918 20.9036 7.69789C20.045 6.81004 19.6096 5.75886 19.6096 4.57351C19.6096 3.2919 20.1136 2.12775 21.0287 1.29532C21.9297 0.474944 23.1795 0.0234375 24.5476 0.0234375C25.2147 0.0234375 25.8805 0.110161 26.4728 0.274275C26.9792 0.414471 27.4283 0.610474 27.7379 0.826311L27.9718 0.989258L27.23 2.59637L26.8955 2.35817C26.4633 2.05016 25.5603 1.69024 24.4385 1.69024C23.4416 1.69024 22.6352 1.99727 22.1065 2.57789C21.683 3.04321 21.4401 3.68508 21.4401 4.33939C21.4401 5.19613 21.662 5.82167 22.1596 6.36767C22.6109 6.86293 23.2979 7.30763 24.4566 7.85442L24.4614 7.85675C25.856 8.54237 26.7987 9.21594 27.4285 9.97623C28.1348 10.8289 28.4781 11.8355 28.4781 13.0534C28.4781 14.4234 27.9815 15.6627 27.0801 16.5427C26.1193 17.4805 24.7595 17.9762 23.1476 17.9762H23.1474ZM19.9827 16.4931C20.3034 16.6895 20.7345 16.87 21.227 17.0117C21.8625 17.1947 22.5446 17.2956 23.1476 17.2956C24.5783 17.2956 25.7738 16.8669 26.6048 16.0556C26.9904 15.6792 27.2889 15.229 27.4919 14.7176C27.6949 14.2064 27.7978 13.6464 27.7978 13.0534C27.7978 11.9858 27.5139 11.146 26.9047 10.4104C26.3386 9.72714 25.4677 9.10997 24.1637 8.46868C22.921 7.88223 22.1712 7.39086 21.6567 6.82618C21.0448 6.15456 20.7598 5.36432 20.7598 4.33939C20.7598 3.51766 21.0674 2.70876 21.6035 2.11978C22.0645 1.61343 22.9306 1.00967 24.4387 1.00967C25.4839 1.00967 26.3633 1.28268 26.9443 1.59166L27.1073 1.23854C26.4098 0.870645 25.3561 0.704004 24.5478 0.704004C23.3494 0.704004 22.2622 1.0927 21.4864 1.79835C21.1072 2.1433 20.8117 2.55281 20.6077 3.01559C20.3967 3.49452 20.2898 4.01855 20.2898 4.57312C20.2898 5.09521 20.3897 5.58969 20.5865 6.04295C20.7689 6.46256 21.04 6.86001 21.3923 7.22441C22.0155 7.869 22.9125 8.43212 24.0584 8.89841L24.0743 8.90541C25.2083 9.43567 25.9799 9.98731 26.502 10.6414C27.0577 11.3374 27.3278 12.1593 27.3278 13.1545C27.3278 14.276 26.9401 15.2325 26.2066 15.9203C25.4695 16.6116 24.4346 16.9769 23.2139 16.9769C22.1623 16.9769 21.0403 16.6712 20.1354 16.1476L19.9824 16.4931H19.9827Z" fill="white"/>
</g>
<defs>
<clipPath id="clip0_102_16">
<rect width="28.4782" height="18" fill="white"/>
</clipPath>
</defs>
</svg>
