<svg width="18" height="18" viewBox="0 0 18 18" fill="none" xmlns="http://www.w3.org/2000/svg">
<path d="M12.464 0C12.5059 0 12.5478 0 12.592 0C12.6948 1.2694 12.2102 2.21789 11.6214 2.90476C11.0436 3.58688 10.2524 4.24845 8.97273 4.14807C8.88737 2.89685 9.37268 2.01871 9.96074 1.33342C10.5061 0.69477 11.506 0.126466 12.464 0Z" fill="white"/>
<path d="M16.3378 13.2125C16.3378 13.2251 16.3378 13.2362 16.3378 13.2481C15.9781 14.3372 15.4652 15.2707 14.8391 16.137C14.2677 16.9235 13.5674 17.9818 12.317 17.9818C11.2365 17.9818 10.5188 17.287 9.41141 17.2681C8.24002 17.2491 7.59584 17.849 6.52483 18C6.40232 18 6.2798 18 6.15966 18C5.3732 17.8862 4.7385 17.2633 4.27612 16.7021C2.91266 15.0439 1.85904 12.9019 1.66302 10.1607C1.66302 9.89197 1.66302 9.62403 1.66302 9.35529C1.74601 7.39349 2.69925 5.79844 3.96627 5.02542C4.63496 4.61441 5.55421 4.26426 6.57779 4.42076C7.01647 4.48873 7.46463 4.63891 7.85746 4.78751C8.22974 4.93057 8.6953 5.18429 9.13634 5.17086C9.43512 5.16216 9.73231 5.00645 10.0335 4.89659C10.9156 4.57805 11.7803 4.21288 12.92 4.3844C14.2898 4.59149 15.262 5.2001 15.8627 6.13911C14.704 6.87656 13.7879 7.98788 13.9444 9.88565C14.0835 11.6095 15.0858 12.6181 16.3378 13.2125Z" fill="white"/>
</svg>
