<svg width="18" height="18" viewBox="0 0 18 18" fill="none" xmlns="http://www.w3.org/2000/svg">
<g clip-path="url(#clip0_4_93)">
<path d="M16.52 15.0714C16.4465 14.9877 16.3426 14.9058 16.2088 14.8254C16.1885 14.8122 16.1334 14.7804 16.0433 14.7304C15.9531 14.6801 15.8811 14.6366 15.8272 14.5996C15.7738 14.5628 15.7034 14.4992 15.6163 14.4088C15.5294 14.3185 15.4608 14.2229 15.4104 14.1225C15.3602 14.0222 15.3117 13.8866 15.2647 13.7158C15.2178 13.545 15.1913 13.3559 15.1844 13.1483C15.0906 13.2283 15.0388 13.3874 15.0288 13.6253C15.0187 13.8629 15.069 14.1055 15.1795 14.3533C15.2899 14.6012 15.4557 14.7616 15.6766 14.8355C15.8908 14.9093 16.0631 14.9877 16.1939 15.0714C16.3243 15.1552 16.4082 15.2504 16.4451 15.3576C16.4819 15.465 16.4198 15.5804 16.2592 15.7042C16.0983 15.8282 15.8406 15.9503 15.4858 16.0712C14.997 16.2384 14.6504 16.3808 14.4461 16.4978C14.2419 16.6151 13.9424 16.8378 13.5472 17.1658C13.2793 17.3868 12.9948 17.5058 12.6933 17.5225C12.3922 17.5393 12.1476 17.4288 11.9603 17.1912C11.7727 16.9535 11.7122 16.6172 11.7793 16.1817C11.9065 15.3448 11.9034 14.6918 11.7695 14.2232C11.6624 13.8549 11.6388 13.5301 11.6993 13.2488C11.7594 12.9679 11.8531 12.8039 11.9805 12.7569C12.1073 12.7099 12.2449 12.8104 12.3922 13.0581C12.4053 13.0915 12.4356 13.1568 12.4824 13.2539C12.5292 13.351 12.5676 13.4198 12.598 13.4598C12.6281 13.5 12.6733 13.5519 12.7336 13.6156C12.7938 13.6794 12.8695 13.7244 12.9597 13.7514C13.05 13.7781 13.1554 13.7948 13.2761 13.8015C13.5038 13.8081 13.7078 13.7613 13.8888 13.6609C14.0695 13.5605 14.2053 13.4483 14.2956 13.3244C14.3858 13.2004 14.4764 13.0817 14.5667 12.9678C14.657 12.8538 14.7357 12.7902 14.8028 12.7767C14.8764 12.7636 14.9434 12.6899 15.0037 12.5558C15.0639 12.4219 15.1041 12.2361 15.1242 11.9985C15.1445 11.7607 15.1276 11.4778 15.0741 11.1499C14.9736 10.5671 14.7743 9.92767 14.4764 9.23132C14.1783 8.53486 13.8454 7.98915 13.477 7.59404C12.8142 6.89104 12.3691 6.1612 12.1412 5.40448C11.907 4.60772 11.8067 3.89121 11.8401 3.25505C11.8736 2.79968 11.7748 2.30583 11.5439 1.77345C11.313 1.24114 11.0065 0.834355 10.6248 0.553127C10.3838 0.372407 10.0857 0.233482 9.73104 0.136314C9.37614 0.0391474 9.02114 -0.00591809 8.66625 0.000695744C8.2311 0.000695744 7.88279 0.0709501 7.62175 0.211635C7.08607 0.499618 6.73128 0.849447 6.55707 1.26126C6.38286 1.67301 6.30265 2.18023 6.31594 2.7829C6.34286 4.10873 6.39629 5.14661 6.47672 5.8965C6.38289 6.24475 5.96784 6.89752 5.2312 7.85504C5.0972 7.98904 4.96662 8.1698 4.83937 8.39745C4.71219 8.62517 4.61172 8.82946 4.53809 9.01011C4.46435 9.19083 4.36564 9.45197 4.24177 9.79353C4.11783 10.135 4.02921 10.3761 3.9756 10.5166C3.92874 10.6374 3.85504 10.7777 3.75467 10.9387C3.65419 11.0993 3.57367 11.2568 3.51354 11.4105C3.45342 11.5645 3.41986 11.7386 3.41317 11.9328C3.40649 12.0801 3.41318 12.2074 3.4333 12.3144C3.46 12.4754 3.51034 12.5255 3.5839 12.4653C3.88536 12.2376 4.26369 12.3715 4.71895 12.8671C5.04035 13.2153 5.60622 14.0256 6.41642 15.2979C6.48337 15.4116 6.55028 15.5338 6.61722 15.6647C6.68435 15.7951 6.74778 15.969 6.80811 16.1867C6.86837 16.4046 6.89353 16.6003 6.88343 16.7745C6.8733 16.9487 6.7964 17.1094 6.6524 17.2565C6.50841 17.4038 6.29244 17.4974 6.00457 17.5376C5.85048 17.5577 5.66483 17.5445 5.4471 17.4974C5.22948 17.4506 4.95325 17.3736 4.61851 17.2665C4.2837 17.1595 4.036 17.0857 3.87526 17.0455C3.64104 16.9918 3.30792 16.9235 2.87594 16.8396C2.444 16.7558 2.16101 16.6939 2.02712 16.6537C1.79947 16.5935 1.67564 16.5066 1.65558 16.3926C1.63546 16.2988 1.68232 16.1382 1.7962 15.9107C1.91015 15.683 1.96696 15.5188 1.96696 15.4185C1.97358 15.3447 1.97027 15.2713 1.95683 15.1975C1.94353 15.1238 1.92848 15.0668 1.91169 15.0267C1.89495 14.9865 1.86649 14.9263 1.82628 14.8458C1.78607 14.7655 1.75933 14.7051 1.74593 14.6651C1.62547 14.3837 1.60869 14.1927 1.69572 14.0924C1.75592 14.0053 1.89991 13.9719 2.12756 13.9921C2.46905 14.0256 2.7469 13.9752 2.96122 13.8413C3.31601 13.6203 3.42327 13.2654 3.28259 12.7765C3.28259 13.0042 3.24238 13.1747 3.16203 13.2888C3.08167 13.4025 2.94099 13.5198 2.74018 13.6404C2.62641 13.7074 2.42543 13.7475 2.13759 13.7611C1.84971 13.7745 1.65879 13.8214 1.56507 13.9017C1.49815 13.962 1.46304 14.0524 1.45967 14.1729C1.45636 14.2937 1.47152 14.4156 1.50494 14.5397C1.53836 14.6635 1.57189 14.8057 1.60531 14.9665C1.63884 15.1273 1.65214 15.2613 1.64552 15.3683C1.63884 15.4419 1.5784 15.6245 1.46463 15.9155C1.35086 16.2069 1.32743 16.4296 1.39437 16.5834C1.4279 16.6572 1.48472 16.7226 1.5651 16.7794C1.64542 16.8363 1.75757 16.8849 1.90153 16.9252C2.04538 16.9655 2.17769 16.9972 2.29829 17.0206C2.41874 17.0438 2.58613 17.0741 2.80038 17.1108C3.01466 17.1474 3.18538 17.1795 3.31263 17.2061C3.74119 17.2933 4.22995 17.4372 4.77907 17.638C5.32813 17.839 5.6997 17.9426 5.89389 17.9493C6.0814 17.9559 6.26046 17.9175 6.43126 17.8337C6.60199 17.7501 6.7476 17.6547 6.86816 17.5475C6.98862 17.4404 7.16776 17.3398 7.4054 17.2462C7.64321 17.1524 7.90935 17.1022 8.20402 17.0955C8.33791 17.0889 8.5321 17.0804 8.78653 17.0704C9.04098 17.0603 9.23176 17.0554 9.35901 17.0554C9.93484 17.0554 10.37 17.0586 10.6646 17.0653C10.8656 17.0722 11.0229 17.1039 11.1368 17.1608C11.2506 17.2177 11.3244 17.283 11.3577 17.3566C11.3912 17.4304 11.4467 17.5156 11.5237 17.6128C11.6006 17.7098 11.6993 17.7885 11.8197 17.8487C12.074 17.9694 12.3721 18.0179 12.7137 17.9944C13.0551 17.971 13.2829 17.9057 13.3966 17.7986C13.5841 17.6178 13.8368 17.4034 14.1549 17.1558C14.473 16.9081 14.7595 16.7206 15.0138 16.5933C15.0672 16.5663 15.1577 16.5229 15.2849 16.4626C15.412 16.4023 15.5191 16.3505 15.6061 16.3068C15.6932 16.2632 15.7987 16.2079 15.9224 16.141C16.0463 16.074 16.1468 16.0121 16.2238 15.9551C16.3008 15.8982 16.3793 15.833 16.4598 15.7592C16.5401 15.6857 16.592 15.612 16.6156 15.5383C16.6387 15.4647 16.6473 15.3893 16.6406 15.3124C16.6338 15.2355 16.5938 15.1553 16.52 15.0714ZM11.1365 5.36385C11.1565 5.35055 11.17 5.34548 11.1767 5.34879C11.1834 5.35217 11.1968 5.3656 11.2168 5.389C11.237 5.41243 11.2552 5.43428 11.2721 5.45436C11.2888 5.47427 11.3121 5.50119 11.3422 5.53461C11.3723 5.56814 11.4041 5.59487 11.4374 5.61496C11.4779 5.6417 11.5263 5.66024 11.5832 5.67023C11.6402 5.68022 11.6837 5.69696 11.714 5.72036C11.7442 5.74375 11.766 5.78224 11.7791 5.83589C11.7924 5.90963 11.7812 5.97643 11.7444 6.0367C11.7073 6.09703 11.6589 6.12387 11.5985 6.11712C11.4779 6.09031 11.3473 5.98491 11.2068 5.80074C11.0664 5.61661 11.0428 5.471 11.1365 5.36385ZM9.891 1.46193C9.92435 1.41841 9.94447 1.38327 9.95109 1.35653C9.96446 1.31622 9.96615 1.27442 9.95615 1.2309C9.94616 1.18739 9.94944 1.14387 9.96615 1.10035C9.983 1.05683 10.0215 1.03171 10.0818 1.02503C10.142 1.02503 10.2224 1.0753 10.3229 1.17571C10.3429 1.18915 10.3747 1.20923 10.418 1.23597C10.4615 1.26278 10.4917 1.28617 10.5084 1.30622C10.5251 1.32621 10.5334 1.34313 10.5334 1.35643C10.5201 1.38985 10.49 1.41349 10.4433 1.42679C10.3966 1.44008 10.3461 1.44691 10.2927 1.44691C10.2392 1.44691 10.2089 1.45022 10.2023 1.4569C10.1487 1.47702 10.0985 1.5071 10.0515 1.54724C10.0047 1.58745 9.96787 1.61757 9.94113 1.63765C9.91415 1.65771 9.88745 1.65771 9.86071 1.63765C9.83397 1.59744 9.82388 1.56898 9.83063 1.55231C9.83742 1.53563 9.85754 1.50545 9.891 1.46193ZM5.02976 8.97992C5.07648 8.92641 5.11008 8.8829 5.13013 8.84937C5.15022 8.81584 5.16858 8.77064 5.18537 8.71379C5.20211 8.65679 5.21717 8.6149 5.23057 8.58816C5.24405 8.56125 5.26417 8.55125 5.29091 8.55794C5.3042 8.55463 5.31419 8.56125 5.32112 8.57803C5.32774 8.59477 5.33112 8.60318 5.33112 8.60318V8.63333C5.33112 8.64346 5.32939 8.65676 5.32605 8.67354C5.32267 8.69043 5.31761 8.70545 5.31099 8.71875C5.3042 8.73222 5.29755 8.75234 5.29091 8.77905C5.28422 8.80578 5.27761 8.82925 5.27078 8.8493C5.24405 8.91642 5.20211 8.97655 5.1453 9.03016C5.08834 9.0837 5.04644 9.10717 5.01967 9.10045C4.97949 9.08715 4.98294 9.0468 5.02976 8.97992ZM11.5982 15.177C11.5849 15.3912 11.5396 15.6926 11.4626 16.081C11.3856 16.4693 11.3369 16.7271 11.3168 16.8543C11.1762 16.8474 11.0959 16.7955 11.0758 16.6985C11.0558 16.6013 11.0758 16.4759 11.1361 16.3218C11.2833 15.873 11.3601 15.565 11.367 15.3978C11.3806 15.0897 11.347 14.9156 11.2668 14.8755C11.1928 14.8219 11.0791 14.9225 10.9251 15.1767C10.6303 15.6589 10.0378 15.95 9.1473 16.0506C8.34393 16.1578 7.78815 16.0373 7.48005 15.6889C7.4131 15.642 7.34615 15.6337 7.27924 15.6639C7.21229 15.6938 7.16878 15.7258 7.14869 15.759C7.14207 15.7725 7.14869 15.7925 7.16881 15.8194C7.1889 15.8462 7.2207 15.8863 7.26422 15.9399C7.30774 15.9937 7.34288 16.047 7.36962 16.1008C7.63086 16.556 7.60747 16.864 7.29936 17.0247C7.29936 16.7169 7.27593 16.4808 7.22911 16.3168C7.18221 16.1528 7.08857 15.972 6.94788 15.7744C6.80734 15.5769 6.71024 15.4278 6.65673 15.3275C6.85754 15.3075 7.0099 15.2304 7.11372 15.0965C7.2175 14.9626 7.26432 14.8186 7.25433 14.6646C7.24427 14.5105 7.18573 14.3832 7.07857 14.2828C7.01831 14.2227 6.70686 13.9665 6.14444 13.5145C5.58205 13.0625 5.23381 12.7595 5.09995 12.6055C5.07304 12.5787 4.99279 12.5117 4.85883 12.4046C4.72482 12.2975 4.6411 12.2038 4.60768 12.1234C4.2996 11.4474 4.26618 10.8913 4.5072 10.4563L4.54734 10.4061C4.58076 10.3995 4.58414 10.4596 4.55733 10.5869C4.51719 10.7745 4.50386 10.9618 4.51719 11.1494C4.54393 11.5713 4.66449 11.886 4.87874 12.0934C5.01942 12.2342 5.11645 12.2241 5.17006 12.0634C5.21027 12.0097 5.22864 11.8122 5.22526 11.4706C5.22206 11.1292 5.22702 10.8982 5.24042 10.7776C5.29404 10.396 5.45308 9.92377 5.71753 9.36156C5.98198 8.79903 6.19134 8.49768 6.34532 8.45754C6.22476 8.26334 6.18627 8.0524 6.22982 7.82472C6.27327 7.59703 6.3437 7.40273 6.44073 7.24214C6.53772 7.08147 6.63661 6.89572 6.73694 6.68475C6.83742 6.47381 6.88762 6.28461 6.88762 6.11722C6.88762 6.07043 6.89107 6.03691 6.89775 6.01682C6.9178 5.95656 7.00153 6.03019 7.14883 6.23772C7.43006 6.65294 7.641 6.89741 7.78165 6.97104C7.92894 7.05129 8.09292 7.04798 8.27374 6.96091C8.4545 6.87387 8.67712 6.72988 8.94167 6.52908C9.20605 6.32827 9.43204 6.1809 9.61959 6.08725C9.63982 6.08046 9.67151 6.0654 9.71521 6.04197C9.75851 6.01868 9.792 6.00183 9.81536 5.9917C9.83862 5.98171 9.86884 5.96669 9.90578 5.94657C9.94236 5.92648 9.97079 5.90973 9.99091 5.89629C10.011 5.88282 10.0311 5.86776 10.0511 5.85102C10.0711 5.8342 10.0844 5.8176 10.0913 5.80082C10.098 5.78407 10.1014 5.76905 10.1014 5.75561C10.0879 5.69531 10.0595 5.65844 10.0159 5.64514C9.97237 5.63178 9.91387 5.64008 9.84017 5.6703C9.7665 5.70045 9.68439 5.74066 9.59408 5.79082C9.50381 5.84103 9.40341 5.89795 9.29287 5.96159C9.18244 6.02523 9.07025 6.08373 8.95648 6.13738C8.84271 6.191 8.72211 6.23786 8.59487 6.27807C8.46766 6.31817 8.34713 6.34171 8.23332 6.34839C7.95209 6.35511 7.72786 6.28158 7.56047 6.12746C7.45335 6.02692 7.3965 5.96335 7.38971 5.93657C7.38295 5.90987 7.41314 5.90319 7.48005 5.91649C7.84177 5.96338 8.10618 5.97 8.2736 5.93657C8.44767 5.90987 8.68201 5.83279 8.97667 5.70555C9.03701 5.67881 9.18916 5.61345 9.4338 5.50967C9.67806 5.40603 9.86732 5.33401 10.0012 5.2938C10.0817 5.27368 10.137 5.24191 10.1671 5.19839C10.1971 5.15488 10.2072 5.11467 10.1971 5.0778C10.1871 5.04103 10.1653 5.01261 10.132 4.99252C10.0581 4.95231 9.99123 4.97915 9.93118 5.07287C9.89758 5.13314 9.82715 5.19182 9.7201 5.24867C9.61308 5.30566 9.51415 5.3491 9.42381 5.37922C9.33343 5.4093 9.21794 5.44448 9.07725 5.48462C8.93657 5.52483 8.8597 5.54826 8.84623 5.55494C8.478 5.66871 8.13651 5.71899 7.82175 5.70555C7.67442 5.69893 7.55561 5.67709 7.46527 5.64025C7.37486 5.60353 7.31284 5.56001 7.27945 5.5097C7.24593 5.45957 7.19242 5.39593 7.11875 5.31889C7.04501 5.24184 6.96128 5.17658 6.8676 5.12293C6.80065 5.08951 6.7755 5.02925 6.79228 4.94221C6.80903 4.85518 6.86092 4.76469 6.94795 4.67098C6.95464 4.66422 7.02331 4.62246 7.15382 4.54542C7.28438 4.46837 7.37648 4.38968 7.43013 4.30933C7.49025 4.21561 7.5941 4.11844 7.7414 4.01797C7.74808 3.99123 7.75315 3.9176 7.75646 3.79707C7.75976 3.67661 7.728 3.54603 7.66105 3.40541C7.5941 3.26473 7.50362 3.19451 7.38981 3.19451C7.22907 3.18782 7.11527 3.23465 7.04832 3.33512C6.98137 3.43546 6.95133 3.55939 6.95798 3.70669C6.96477 3.83387 6.99657 3.94595 7.05339 4.04312C7.11034 4.14029 7.16227 4.18887 7.20913 4.18887C7.28272 4.18208 7.30615 4.20878 7.27938 4.26912C7.23924 4.34285 7.18559 4.38982 7.11868 4.4098C7.07168 4.4231 7.01975 4.37796 6.96294 4.27418C6.90598 4.1704 6.8625 4.04491 6.83239 3.89754C6.80231 3.75025 6.79049 3.62638 6.79728 3.52583C6.81057 3.31827 6.86577 3.11905 6.96294 2.9282C7.06011 2.73738 7.19903 2.64528 7.37975 2.65189C7.56726 2.65868 7.71804 2.77259 7.83181 2.99349C7.94576 3.21442 7.99927 3.51588 7.99258 3.89751C8.01271 3.9444 8.06456 3.96115 8.14833 3.94771C8.23188 3.93427 8.34245 3.93255 8.47969 3.94265C8.61685 3.95264 8.7156 3.98775 8.7759 4.04804C8.78269 4.04804 8.78603 3.99774 8.78603 3.89737C8.66547 3.05379 8.96341 2.60514 9.67996 2.55152C9.78687 2.57165 9.87728 2.5968 9.95084 2.62684C10.0248 2.65692 10.1031 2.70727 10.1869 2.77752C10.2708 2.84777 10.3409 2.94987 10.3978 3.08387C10.4548 3.21794 10.5 3.38532 10.5335 3.58613V3.9577C10.5335 4.17195 10.4898 4.29251 10.4028 4.31932C10.2623 4.36614 10.162 4.36452 10.1018 4.31425C10.0414 4.26394 10.048 4.17533 10.1217 4.04808C10.1887 3.88069 10.1753 3.68636 10.0815 3.46543C9.98785 3.24453 9.81698 3.14406 9.56935 3.16418C9.40189 3.1709 9.28137 3.26131 9.2077 3.43535C9.13403 3.60946 9.10733 3.78022 9.12742 3.94764C9.14751 4.11503 9.18424 4.20206 9.23796 4.20871C9.27806 4.2155 9.39707 4.26901 9.59457 4.36948C9.79236 4.46992 9.94127 4.53015 10.0416 4.55024C10.3027 4.60371 10.4515 4.68744 10.4885 4.80132C10.5253 4.91527 10.5102 5.08093 10.4433 5.29852C10.3763 5.51624 10.3563 5.69521 10.3832 5.83589C10.41 5.98336 10.4603 6.11712 10.534 6.23764C10.6077 6.35828 10.6861 6.46867 10.7699 6.56918C10.8536 6.66941 10.9522 6.85706 11.0663 7.13153C11.18 7.40615 11.2838 7.75095 11.3774 8.1661C11.384 8.17279 11.4091 8.19622 11.4527 8.23643C11.4963 8.27657 11.5396 8.32677 11.5833 8.38703C11.627 8.44733 11.6788 8.52934 11.7391 8.63312C11.7993 8.73697 11.8648 8.8893 11.9351 9.09025C12.0052 9.29105 12.0707 9.52222 12.1308 9.78322C12.2045 10.0914 12.243 10.4494 12.2464 10.8581C12.2498 11.2664 12.2765 11.546 12.3268 11.6967C12.3772 11.8476 12.506 11.9095 12.7135 11.8826C12.9747 11.8693 13.1423 11.7286 13.2156 11.4608C13.4366 10.684 13.256 9.75314 12.6733 8.66854C12.4523 8.24667 12.2616 7.96874 12.1008 7.83488C12.3351 7.96878 12.5762 8.21979 12.8241 8.58819C13.0719 8.95653 13.2291 9.30147 13.296 9.62266C13.3025 9.65626 13.3211 9.74502 13.3512 9.88883C13.3812 10.0328 13.3981 10.1166 13.4013 10.14C13.4045 10.1634 13.4181 10.2321 13.4414 10.3459C13.4649 10.4597 13.4765 10.5334 13.4765 10.5669C13.4765 10.6005 13.4797 10.6657 13.4866 10.7628C13.4935 10.8598 13.4917 10.9352 13.4815 10.9887C13.4714 11.0424 13.4616 11.1144 13.4515 11.2046C13.4414 11.295 13.4247 11.3821 13.4013 11.4659C13.3781 11.5495 13.353 11.6418 13.3261 11.7421C13.6943 11.9028 13.8785 12.0433 13.8785 12.1639C13.738 12.05 13.5369 11.9748 13.2757 11.9383C13.0144 11.9013 12.772 11.9365 12.5475 12.0436C12.3231 12.1508 12.2076 12.3281 12.2008 12.5758C11.9598 12.5758 11.789 12.636 11.6887 12.7567C11.5414 12.9307 11.4645 13.1667 11.4578 13.4648C11.4511 13.7626 11.476 14.0875 11.5329 14.4388C11.5901 14.7904 11.6118 15.0363 11.5982 15.177ZM7.38999 3.53582C7.36986 3.52921 7.35315 3.50898 7.33986 3.47556C7.33986 3.41544 7.3699 3.39183 7.4302 3.40531C7.47041 3.4186 7.509 3.46888 7.54573 3.55591C7.58256 3.64295 7.59094 3.74342 7.57088 3.85726C7.57088 3.87735 7.56089 3.88748 7.54066 3.88731C7.46693 3.88731 7.44019 3.82039 7.46031 3.6865C7.48033 3.58606 7.4569 3.53582 7.38999 3.53582ZM9.9914 3.69663L9.97142 3.72671C9.91795 3.76013 9.89139 3.76685 9.89139 3.74683C9.86441 3.56594 9.80418 3.46216 9.71053 3.43535L9.67032 3.4153C9.62335 3.37509 9.64671 3.35166 9.74036 3.34497C9.76045 3.33825 9.79056 3.34824 9.83077 3.37505C9.87098 3.40189 9.90782 3.44376 9.94131 3.50068C9.97466 3.55767 9.9914 3.62286 9.9914 3.69663Z" fill="white"/>
<path d="M7.65112 4.279C7.65112 4.31921 7.66797 4.33595 7.70147 4.3293C7.7282 4.3293 7.75652 4.29747 7.78674 4.23386C7.81689 4.1704 7.86885 4.13525 7.94241 4.12846V4.12836H7.84194C7.71476 4.14844 7.65112 4.19865 7.65112 4.279Z" fill="white"/>
<path d="M8.52502 4.15859C8.59197 4.13847 8.65065 4.15367 8.70085 4.20387C8.75099 4.254 8.78958 4.27585 8.81638 4.26906C8.85642 4.24908 8.86652 4.21886 8.84643 4.17872C8.79288 4.09164 8.6858 4.08496 8.52502 4.15859Z" fill="white"/>
</g>
<defs>
<clipPath id="clip0_4_93">
<rect width="18" height="18" fill="white"/>
</clipPath>
</defs>
</svg>
