<svg width="184" height="36" viewBox="0 0 184 36" fill="none" xmlns="http://www.w3.org/2000/svg">
<path d="M47.03 27.17C44.922 27.1927 43.2787 26.7507 42.1 25.844C40.944 24.9373 40.1393 23.5433 39.686 21.662C39.2327 19.758 39.006 17.344 39.006 14.42C39.006 11.5867 39.244 9.24071 39.72 7.38201C40.2187 5.50071 41.08 4.09531 42.304 3.16601C43.528 2.23668 45.2507 1.77201 47.472 1.77201C48.7867 1.77201 50.158 1.85134 51.586 2.01001C53.0367 2.16868 54.3513 2.38401 55.53 2.65601V4.66201C55.0767 4.61671 54.442 4.56001 53.626 4.49201C52.81 4.40131 51.9033 4.33331 50.906 4.28801C49.9087 4.22001 48.9 4.18601 47.88 4.18601C46.248 4.18601 44.9787 4.53731 44.072 5.24001C43.188 5.92001 42.5647 7.00801 42.202 8.50401C41.862 10 41.692 11.9833 41.692 14.454C41.692 17.106 41.862 19.18 42.202 20.676C42.5647 22.1493 43.1767 23.192 44.038 23.804C44.922 24.3933 46.1687 24.688 47.778 24.688C48.866 24.688 49.9653 24.552 51.076 24.28C52.2093 24.008 53.1727 23.7133 53.966 23.396V16.018H47.914V14.012C48.5713 13.8987 49.3987 13.8193 50.396 13.774C51.416 13.706 52.4587 13.672 53.524 13.672C54.748 13.672 55.7567 13.7173 56.55 13.808V27H54.578L54.17 25.232C53.354 25.6627 52.3113 26.0933 51.042 26.524C49.7953 26.932 48.458 27.1473 47.03 27.17ZM65.3329 27.204C63.9956 27.204 62.8962 26.8073 62.0349 26.014C61.1736 25.2207 60.7429 24.0987 60.7429 22.648V21.356C60.7429 19.928 61.2076 18.772 62.1369 17.888C63.0889 17.004 64.5169 16.562 66.4209 16.562H72.5749V14.318C72.5749 13.57 72.4502 12.9353 72.2009 12.414C71.9516 11.87 71.4869 11.4507 70.8069 11.156C70.1269 10.8613 69.1522 10.714 67.8829 10.714H62.2389V9.11601C63.0322 8.98001 63.9502 8.85531 64.9929 8.74201C66.0582 8.62871 67.3049 8.57201 68.7329 8.57201C70.9542 8.54931 72.5976 8.98001 73.6629 9.86401C74.7282 10.748 75.2609 12.1873 75.2609 14.182V27H73.1869L72.6769 24.926C72.6089 24.994 72.3369 25.1527 71.8609 25.402C71.3849 25.6287 70.7842 25.8893 70.0589 26.184C69.3562 26.456 68.5856 26.694 67.7469 26.898C66.9309 27.102 66.1262 27.204 65.3329 27.204ZM66.4549 25.198C66.9536 25.198 67.5429 25.13 68.2229 24.994C68.9256 24.8353 69.5942 24.654 70.2289 24.45C70.8862 24.246 71.4302 24.0647 71.8609 23.906C72.3142 23.7247 72.5522 23.634 72.5749 23.634V17.922L67.0329 18.16C65.7409 18.2053 64.8116 18.534 64.2449 19.146C63.7009 19.7353 63.4289 20.4833 63.4289 21.39V22.206C63.4289 22.954 63.5762 23.5433 63.8709 23.974C64.1882 24.4047 64.5736 24.722 65.0269 24.926C65.5029 25.1073 65.9789 25.198 66.4549 25.198ZM80.3242 27V8.84401H82.4322L83.0102 10.85C83.9169 10.238 84.9256 9.70532 86.0362 9.25202C87.1696 8.77602 88.4276 8.53801 89.8102 8.53801C90.9436 8.53801 91.9069 8.79871 92.7002 9.32001C93.494 9.81871 94.106 10.4533 94.536 11.224C95.103 10.816 95.783 10.408 96.576 10C97.392 9.59201 98.254 9.25201 99.16 8.98001C100.09 8.68531 100.985 8.53801 101.846 8.53801C103.161 8.53801 104.238 8.82131 105.076 9.38801C105.915 9.93201 106.527 10.68 106.912 11.632C107.32 12.5613 107.524 13.604 107.524 14.76V27H104.838V14.964C104.838 13.808 104.498 12.856 103.818 12.108C103.138 11.36 102.198 10.986 100.996 10.986C99.976 10.986 98.934 11.1787 97.868 11.564C96.803 11.9493 95.817 12.414 94.91 12.958C95.137 13.6607 95.25 14.3407 95.25 14.998V27H92.5642V14.964C92.5642 13.808 92.2242 12.856 91.5442 12.108C90.8869 11.36 89.9689 10.986 88.7902 10.986C87.6116 10.986 86.5916 11.1447 85.7302 11.462C84.8689 11.7793 83.9622 12.21 83.0102 12.754V27H80.3242ZM119.5 27.204C117.596 27.204 116.089 26.9207 114.978 26.354C113.89 25.7873 113.108 24.824 112.632 23.464C112.156 22.104 111.918 20.2453 111.918 17.888C111.918 15.4853 112.156 13.6153 112.632 12.278C113.131 10.918 113.936 9.96602 115.046 9.42202C116.157 8.87802 117.653 8.60601 119.534 8.60601C121.121 8.60601 122.424 8.78731 123.444 9.15001C124.464 9.51271 125.212 10.136 125.688 11.02C126.187 11.8813 126.436 13.0827 126.436 14.624C126.436 16.2333 125.972 17.3667 125.042 18.024C124.113 18.6813 122.855 19.01 121.268 19.01H114.604C114.604 20.4833 114.752 21.6733 115.046 22.58C115.364 23.464 115.919 24.11 116.712 24.518C117.506 24.9033 118.65 25.096 120.146 25.096H125.994V26.728C124.952 26.864 123.932 26.9773 122.934 27.068C121.96 27.1587 120.815 27.204 119.5 27.204ZM114.57 17.242H121.03C122.05 17.242 122.798 17.0607 123.274 16.698C123.773 16.3127 124.022 15.6327 124.022 14.658C124.022 13.1167 123.682 12.0627 123.002 11.496C122.322 10.9293 121.166 10.646 119.534 10.646C118.242 10.646 117.234 10.8387 116.508 11.224C115.806 11.5867 115.307 12.2553 115.012 13.23C114.718 14.182 114.57 15.5193 114.57 17.242ZM130.959 35.058V8.84401H133.135L133.645 10.714C134.053 10.4193 134.574 10.1133 135.209 9.79601C135.866 9.45601 136.569 9.17271 137.317 8.94601C138.088 8.71931 138.847 8.60601 139.595 8.60601C141.159 8.60601 142.417 9.04801 143.369 9.93201C144.321 10.7933 145.012 11.9267 145.443 13.332C145.874 14.7373 146.089 16.256 146.089 17.888C146.089 20.948 145.568 23.2713 144.525 24.858C143.482 26.4447 141.839 27.238 139.595 27.238C138.598 27.238 137.578 27.0793 136.535 26.762C135.492 26.4447 134.529 26.0253 133.645 25.504V35.058H130.959ZM138.847 24.96C139.708 24.96 140.479 24.7447 141.159 24.314C141.839 23.8833 142.383 23.158 142.791 22.138C143.199 21.0953 143.403 19.6787 143.403 17.888C143.403 16.188 143.188 14.828 142.757 13.808C142.326 12.7653 141.76 12.0173 141.057 11.564C140.377 11.088 139.64 10.85 138.847 10.85C137.804 10.85 136.841 11.02 135.957 11.36C135.096 11.6773 134.325 12.0173 133.645 12.38V23.498C134.438 23.9287 135.277 24.28 136.161 24.552C137.068 24.824 137.963 24.96 138.847 24.96ZM154.151 27.204C152.814 27.204 151.715 26.8073 150.853 26.014C149.992 25.2207 149.561 24.0987 149.561 22.648V21.356C149.561 19.928 150.026 18.772 150.955 17.888C151.907 17.004 153.335 16.562 155.239 16.562H161.393V14.318C161.393 13.57 161.269 12.9353 161.019 12.414C160.77 11.87 160.305 11.4507 159.625 11.156C158.945 10.8613 157.971 10.714 156.701 10.714H151.057V9.11601C151.851 8.98001 152.769 8.85531 153.811 8.74201C154.877 8.62871 156.123 8.57201 157.551 8.57201C159.773 8.54931 161.416 8.98001 162.481 9.86401C163.547 10.748 164.079 12.1873 164.079 14.182V27H162.005L161.495 24.926C161.427 24.994 161.155 25.1527 160.679 25.402C160.203 25.6287 159.603 25.8893 158.877 26.184C158.175 26.456 157.404 26.694 156.565 26.898C155.749 27.102 154.945 27.204 154.151 27.204ZM155.273 25.198C155.772 25.198 156.361 25.13 157.041 24.994C157.744 24.8353 158.413 24.654 159.047 24.45C159.705 24.246 160.249 24.0647 160.679 23.906C161.133 23.7247 161.371 23.634 161.393 23.634V17.922L155.851 18.16C154.559 18.2053 153.63 18.534 153.063 19.146C152.519 19.7353 152.247 20.4833 152.247 21.39V22.206C152.247 22.954 152.395 23.5433 152.689 23.974C153.007 24.4047 153.392 24.722 153.845 24.926C154.321 25.1073 154.797 25.198 155.273 25.198ZM175.025 27.204C172.781 27.204 171.126 26.4673 170.061 24.994C169.018 23.5207 168.497 21.2087 168.497 18.058C168.497 15.814 168.723 14.0007 169.177 12.618C169.63 11.2353 170.355 10.2267 171.353 9.59201C172.35 8.93471 173.687 8.60601 175.365 8.60601C176.385 8.60601 177.382 8.71931 178.357 8.94601C179.331 9.17271 180.193 9.42201 180.941 9.69401V1.05801H183.627V27H181.451L180.941 25.164C180.601 25.4587 180.091 25.7647 179.411 26.082C178.753 26.3993 178.028 26.6713 177.235 26.898C176.464 27.102 175.727 27.204 175.025 27.204ZM175.807 24.994C176.849 24.994 177.79 24.8353 178.629 24.518C179.49 24.178 180.261 23.8267 180.941 23.464V11.598C180.125 11.3713 179.343 11.1673 178.595 10.986C177.869 10.8047 177.031 10.714 176.079 10.714C174.923 10.714 173.982 10.9293 173.257 11.36C172.531 11.7907 171.999 12.5387 171.659 13.604C171.341 14.6467 171.183 16.0973 171.183 17.956C171.183 20.4947 171.534 22.308 172.237 23.396C172.962 24.4613 174.152 24.994 175.807 24.994Z" fill="white"/>
<path d="M6.877 1.36472L1.36476 6.877C0.853204 7.3885 0.853204 8.2189 1.36476 8.7305L6.8807 14.2464C7.13 14.4957 7.4697 14.6342 7.8223 14.6301L13.2734 14.5689C13.6297 14.5647 13.9517 14.4188 14.1853 14.1852C14.4188 13.9517 14.5652 13.6292 14.569 13.2733L14.6301 7.8222C14.6343 7.4696 14.4957 7.13 14.2465 6.8807L8.7305 1.36472C8.2189 0.853159 7.3886 0.853159 6.877 1.36472ZM12.0033 8.3445L11.9625 11.9625L8.3445 12.0032L4.145 7.8037L7.8038 4.1449L12.0033 8.3445Z" fill="#FF4655"/>
<path d="M22.6617 15.8539L17.2102 15.9146C16.4975 15.922 15.922 16.4975 15.9146 17.2102L15.8539 22.6617C15.8497 23.0143 15.9883 23.354 16.2375 23.6033L21.753 29.1188C22.2646 29.6303 23.095 29.6303 23.6065 29.1188L29.1188 23.6065C29.6303 23.095 29.6303 22.2646 29.1188 21.753L23.6033 16.2375C23.354 15.9883 23.0143 15.8497 22.6617 15.8539ZM22.6798 26.3386L18.4807 22.1395L18.521 18.521L22.1395 18.4807L26.3386 22.6798L22.6798 26.3386Z" fill="#FF4655"/>
<path d="M13.2729 15.9141L7.8213 15.8534C7.4687 15.8492 7.1291 15.9878 6.8798 16.2371L1.36429 21.7526C0.852731 22.2641 0.852731 23.0945 1.36429 23.6061L6.8765 29.1183C7.3886 29.6303 8.2185 29.6299 8.73 29.1183L14.2455 23.6028C14.4948 23.3535 14.6333 23.0139 14.6292 22.6612L14.5689 17.2102C14.5611 16.498 13.9851 15.922 13.2729 15.9141ZM12.0023 22.139L7.8033 26.3381L4.145 22.6798L8.344 18.4807L11.9625 18.521L12.0023 22.139Z" fill="#FF4655"/>
<path d="M21.753 1.36471L16.2375 6.88019C15.9882 7.12949 15.8497 7.46919 15.8539 7.82179L15.9146 13.2733C15.9225 13.9855 16.4984 14.5615 17.2106 14.5694L22.6617 14.6296C23.0143 14.6338 23.354 14.4952 23.6033 14.2459L29.1188 8.73049C29.6303 8.21889 29.6303 7.38849 29.1188 6.87699L23.6065 1.36471C23.0945 0.852688 22.2646 0.853148 21.753 1.36471ZM26.3381 7.80319L22.139 12.0023L18.521 11.9625L18.4807 8.34399L22.6798 4.14489L26.3381 7.80319Z" fill="#FF4655" stroke="#FF4655"/>
</svg>
