<svg width="35" height="35" viewBox="0 0 35 35" fill="none" xmlns="http://www.w3.org/2000/svg">
<path fill-rule="evenodd" clip-rule="evenodd" d="M21.824 20.7886H22.9761L30.2531 28.0802L28.0802 30.2531L20.7886 22.9761V21.824L20.3948 21.4156C18.7323 22.8448 16.574 23.7052 14.2261 23.7052C8.9907 23.7052 4.74689 19.4615 4.74689 14.2261C4.74689 8.99065 8.9907 4.74689 14.2261 4.74689C19.4615 4.74689 23.7052 8.99065 23.7052 14.2261C23.7052 16.574 22.8448 18.7323 21.4158 20.3948L21.824 20.7886ZM7.66355 14.2261C7.66355 17.8573 10.5948 20.7886 14.2261 20.7886C17.8573 20.7886 20.7886 17.8573 20.7886 14.2261C20.7886 10.5948 17.8573 7.66355 14.2261 7.66355C10.5948 7.66355 7.66355 10.5948 7.66355 14.2261Z" fill="#131C2E"/>
</svg>
