<svg width="18" height="18" viewBox="0 0 18 18" fill="none" xmlns="http://www.w3.org/2000/svg">
<path d="M13.957 0H9.87891V18H13.957C16.1863 18 18 16.1863 18 13.957V4.04297C18 1.81368 16.1863 0 13.957 0ZM13.9395 11.6719C12.7667 11.6719 11.8125 10.7177 11.8125 9.54492C11.8125 8.37214 12.7667 7.41797 13.9395 7.41797C15.1122 7.41797 16.0664 8.37214 16.0664 9.54492C16.0664 10.7177 15.1122 11.6719 13.9395 11.6719Z" fill="white"/>
<path d="M8.82422 18H4.04297C1.81368 18 0 16.1863 0 13.957V4.04297C0 1.81368 1.81368 0 4.04297 0H8.82422V18ZM4.04297 1.05469C2.39523 1.05469 1.05469 2.39523 1.05469 4.04297V13.957C1.05469 15.6048 2.39523 16.9453 4.04297 16.9453H7.76953V1.05469H4.04297Z" fill="white"/>
<path d="M4.41211 7.41797C3.23933 7.41797 2.28516 6.46379 2.28516 5.29102C2.28516 4.11824 3.23933 3.16406 4.41211 3.16406C5.58489 3.16406 6.53906 4.11824 6.53906 5.29102C6.53906 6.46379 5.58489 7.41797 4.41211 7.41797Z" fill="white"/>
</svg>
