<svg width="18" height="18" viewBox="0 0 18 18" fill="none" xmlns="http://www.w3.org/2000/svg">
<g clip-path="url(#clip0_4_31)">
<path d="M1.97379 11.3949L1.36663 11.631C0.455884 12.0189 -0.0163529 12.4237 0.000512733 12.7779C0.0511096 13.3007 0.641406 13.6886 1.72081 13.9754C3.12065 14.3464 4.53736 14.4307 6.00467 14.2115V12.7442L4.84094 13.1827C3.62662 13.6043 3.00259 13.2501 3.00259 13.2501C2.81707 13.1321 2.73274 12.8454 3.23871 12.6598L3.8796 12.4237L6.00467 11.6648V9.96133L5.46497 10.1469L1.97379 11.3949Z" fill="white"/>
<path d="M10.8451 5.47507V9.84327C11.7558 10.2818 12.5654 10.3155 13.1726 9.86013C13.7966 9.42163 14.1339 8.66267 14.1339 7.51581C14.1339 6.31835 13.8978 5.40761 13.3749 4.80045C12.9027 4.15955 12.0594 3.61985 10.8114 3.19821C9.25973 2.69224 7.94421 2.25374 6.89854 2.03448V15.1053L9.7151 15.9655V5.10403C9.69824 4.44627 10.8451 4.49687 10.8451 5.47507Z" fill="white"/>
<path d="M17.9961 12.2213C17.9793 11.7659 17.4396 11.4118 16.4782 11.0913C15.3988 10.7371 14.4712 10.5685 13.4593 10.6022C12.5317 10.6191 11.4185 10.9227 10.4235 11.2431V12.9128L13.1557 11.9515C13.1557 11.9515 13.9821 11.6479 14.6905 11.8334C15.2302 11.9683 15.1964 12.2719 14.6567 12.4574L14.0327 12.7104L10.4235 14.0091V15.7125L12.11 15.1053L16.1578 13.6718L16.63 13.4525C17.6082 13.0983 18.0467 12.7104 17.9961 12.2213Z" fill="white"/>
</g>
<defs>
<clipPath id="clip0_4_31">
<rect width="18" height="18" fill="white"/>
</clipPath>
</defs>
</svg>
