<svg width="18" height="18" viewBox="0 0 18 18" fill="none" xmlns="http://www.w3.org/2000/svg">
<g clip-path="url(#clip0_4_53)">
<path d="M4.01034 1.52705C4.00124 1.53404 3.99425 1.54174 3.98585 1.54873C4.03692 1.49487 4.11037 1.43681 4.15864 1.40533C5.56747 0.489663 7.19524 0 9.0014 0C10.6907 0 12.273 0.466579 13.6238 1.27802C13.7217 1.33608 13.989 1.51935 14.1268 1.68584V1.68654C12.8236 0.249728 8.99301 3.3325 8.99301 3.3325C7.66812 2.31121 6.44956 1.61519 5.54228 1.36756C4.784 1.1598 4.25937 1.33328 4.01034 1.52705ZM15.6028 2.88551C15.5629 2.84144 15.5195 2.80017 15.4796 2.7547C15.1502 2.39305 14.7451 2.30561 14.38 2.3294C14.0477 2.43362 12.5123 2.98694 10.6201 4.77351C10.6201 4.77351 12.7501 6.84478 14.0547 8.96223C15.3579 11.0797 16.1372 12.7438 15.658 15.0536C17.1123 13.4552 17.9993 11.3315 17.9993 8.9993C17.9993 6.63913 17.0906 4.49091 15.6028 2.88551ZM12.3514 9.8667C11.7736 9.21825 10.9139 8.28929 9.77856 7.16027C9.53024 6.91334 9.26792 6.65591 8.99231 6.3894C8.99231 6.3894 8.57749 6.80421 8.03746 7.34984V7.34914C7.34634 8.04726 6.45026 8.95803 5.9529 9.48966C5.06731 10.4347 2.53016 13.4028 2.38746 15.0669C2.38746 15.0669 1.82294 13.7469 3.06179 10.7026C3.87113 8.7125 6.31665 5.72416 7.33795 4.75043C7.33795 4.75043 6.40479 3.72353 5.23379 3.01422L5.2268 3.01213C5.2268 3.01213 5.21351 3.00163 5.19252 2.98834C4.62941 2.65257 4.01453 2.39375 3.42274 2.35947C2.81836 2.40215 2.43572 2.84424 2.43572 2.84424C0.925463 4.45453 0.00139904 6.61884 0.00139904 9C0.00139904 13.9701 4.03062 18 9.0014 18C11.6393 18 14.0127 16.8626 15.6594 15.0543C15.6587 15.0515 15.4698 13.8651 14.259 12.1632C13.9743 11.7645 12.9341 10.5201 12.3514 9.8667Z" fill="white"/>
</g>
<defs>
<clipPath id="clip0_4_53">
<rect width="18" height="18" fill="white"/>
</clipPath>
</defs>
</svg>
